<svg width="165" height="53" viewBox="0 0 165 53" fill="none" xmlns="http://www.w3.org/2000/svg">
<g clip-path="url(#clip0_1_125)" filter="url(#filter0_d_1_125)">
<path d="M151.599 30.4466V20.2466H148.073V16.8722H151.599V10.8902H155.359V16.8722H160.217V20.2466H155.359V30.2166C155.359 32.4406 156.299 33.3609 158.023 33.3609C158.728 33.3609 159.198 33.2842 159.747 33.0541L161.078 36.1985C160.217 36.582 159.355 36.7353 158.101 36.7353C153.792 36.7353 151.599 34.4346 151.599 30.4466ZM127.469 26.6887C127.469 21.1669 131.386 16.3354 137.184 16.3354C143.138 16.3354 146.898 20.4 146.898 26.6887C146.898 26.9955 146.82 27.379 146.82 27.379H131.073C131.308 31.5203 134.285 33.7444 137.419 33.7444C139.612 33.7444 141.806 32.9008 142.824 30.3699L146.115 31.7504C144.94 34.5113 142.041 37.0421 137.419 37.0421C131.543 37.0421 127.469 32.5173 127.469 26.6887ZM137.184 19.6331C134.442 19.6331 132.248 21.4737 131.465 24.3113H142.981C142.903 22.6241 141.414 19.6331 137.184 19.6331ZM109.215 33.6677H109.058V36.3519H105.455V7.97595H109.215V16.9489L109.058 19.6331H109.215C110.39 17.8692 112.819 16.2587 116.031 16.2587C121.045 16.2587 125.51 20.7068 125.51 26.612C125.51 32.5173 121.123 36.9654 116.031 36.9654C112.819 37.0421 110.312 35.5083 109.215 33.6677ZM121.672 26.6887C121.672 22.3173 118.695 19.6331 115.326 19.6331C112.035 19.6331 108.98 22.2406 108.98 26.6887C108.98 31.1369 111.957 33.7444 115.326 33.7444C118.695 33.6677 121.672 31.0602 121.672 26.6887ZM83.9885 30.5233C83.9885 26.0752 88.0624 23.6978 92.6846 23.6978C95.3483 23.6978 97.3069 24.4647 98.0903 24.9248V24.388C98.0903 21.4737 95.6617 19.6331 92.9197 19.6331C90.8827 19.6331 88.8458 20.6301 88.1407 22.4707L84.6936 21.0135C85.3987 19.2496 87.749 16.2587 92.763 16.2587C97.6203 16.2587 101.616 19.0963 101.616 24.6181V36.3519H98.012V33.6677H97.8553C96.7585 35.2782 94.7216 37.0421 91.3528 37.0421C87.3573 37.0421 83.9885 34.588 83.9885 30.5233ZM98.0903 27.9925C98.0903 27.9925 96.5235 26.6887 93.3114 26.6887C89.3942 26.6887 87.8274 28.7594 87.8274 30.5233C87.8274 32.594 90.021 33.591 91.9796 33.591C94.9566 33.6677 98.0903 31.2135 98.0903 27.9925ZM66.988 16.9489L66.8313 19.6331H66.988C68.0065 17.8692 70.5918 16.2587 73.2555 16.2587C78.3478 16.2587 80.8548 19.6331 80.8548 24.4647V36.3519H77.0943V25.0015C77.0943 20.9369 75.0574 19.6331 72.1587 19.6331C68.9466 19.6331 66.9097 22.6241 66.9097 25.6151V36.3519H63.1492V7.97595H66.9097L66.988 16.9489ZM44.2685 33.6677H44.1118L44.2685 36.3519V44.9414H40.508V16.9489H44.1118V19.6331H44.2685C45.4436 17.8692 47.8723 16.2587 51.0843 16.2587C56.0983 16.2587 60.5639 20.7068 60.5639 26.612C60.5639 32.5173 56.0983 37.0421 51.006 37.0421C47.8723 37.0421 45.3653 35.5083 44.2685 33.6677ZM56.7251 26.6887C56.7251 22.3173 53.748 19.6331 50.3792 19.6331C47.0888 19.6331 44.0334 22.2406 44.0334 26.6887C44.0334 31.1369 47.0105 33.7444 50.3792 33.7444C53.748 33.6677 56.7251 31.0602 56.7251 26.6887ZM32.8303 36.4286H36.5908V7.97595H32.8303V36.4286ZM15.5165 7.97595L4.5484 36.4286H8.7006L11.521 28.6827H23.7425L26.5629 36.4286H30.6367L19.6687 7.97595H15.5165ZM17.475 12.4241H17.6317L22.4107 25.3083H12.7744L17.475 12.4241Z" fill="#B4A6A2"/>
</g>
<defs>
<filter id="filter0_d_1_125" x="0" y="0" width="165" height="59" filterUnits="userSpaceOnUse" color-interpolation-filters="sRGB">
<feFlood flood-opacity="0" result="BackgroundImageFix"/>
<feColorMatrix in="SourceAlpha" type="matrix" values="0 0 0 0 0 0 0 0 0 0 0 0 0 0 0 0 0 0 127 0" result="hardAlpha"/>
<feOffset dy="4"/>
<feGaussianBlur stdDeviation="2"/>
<feComposite in2="hardAlpha" operator="out"/>
<feColorMatrix type="matrix" values="0 0 0 0 0 0 0 0 0 0 0 0 0 0 0 0 0 0 0.25 0"/>
<feBlend mode="normal" in2="BackgroundImageFix" result="effect1_dropShadow_1_125"/>
<feBlend mode="normal" in="SourceGraphic" in2="effect1_dropShadow_1_125" result="shape"/>
</filter>
<clipPath id="clip0_1_125">
<rect width="157" height="51" fill="white" transform="translate(4)"/>
</clipPath>
</defs>
</svg>
